<?xml version="1.0" encoding="UTF-8"?>
<svg id="Layer_2" data-name="Layer 2" xmlns="http://www.w3.org/2000/svg" viewBox="0 0 1521.68 187.12">
  <defs>
    <style>
      .cls-1 {
        fill: #b40200;
      }

      .cls-1, .cls-2, .cls-3 {
        stroke-width: 0px;
      }

      .cls-2 {
        fill: #d72322;
      }

      .cls-3 {
        fill: #595959;
      }
    </style>
  </defs>
  <g id="Layer_1-2" data-name="Layer 1">
    <g>
      <g>
        <path class="cls-2" d="M98,70c0-27.06-21.94-49-49-49S0,42.94,0,70c0,14.78,6.55,28.02,16.9,37h0l.17.14c.37.32.74.64,1.12.95l79.82,67.12v-42.89l-23-20.79c13.81-8.67,23-24.02,23-41.52Z"/>
        <path class="cls-1" d="M193,49c0-27.06-21.94-49-49-49s-49,21.94-49,49c0,23.83,17.01,43.68,39.55,48.08h-.02s-36.53,35.24-36.53,35.24v42.89l73.78-85.86c12.81-8.84,21.22-23.61,21.22-40.36Z"/>
      </g>
      <g>
        <path class="cls-3" d="M384.71,105.92l17.1,4.32c-3.59,14.05-10.04,24.76-19.35,32.14-9.32,7.38-20.71,11.06-34.16,11.06s-25.26-2.83-33.99-8.51c-8.73-5.67-15.37-13.89-19.93-24.64-4.56-10.76-6.83-22.31-6.83-34.65,0-13.46,2.57-25.2,7.71-35.22,5.14-10.02,12.46-17.63,21.95-22.83,9.49-5.2,19.94-7.8,31.34-7.8,12.93,0,23.8,3.29,32.62,9.87,8.82,6.58,14.96,15.84,18.43,27.77l-16.84,3.97c-3-9.4-7.35-16.25-13.05-20.54-5.7-4.29-12.87-6.44-21.51-6.44-9.93,0-18.24,2.38-24.91,7.14-6.67,4.76-11.36,11.15-14.06,19.18-2.7,8.02-4.06,16.3-4.06,24.82,0,10.99,1.6,20.59,4.8,28.79,3.2,8.2,8.18,14.33,14.94,18.38,6.76,4.06,14.08,6.08,21.95,6.08,9.58,0,17.69-2.76,24.33-8.29,6.64-5.52,11.14-13.72,13.49-24.6Z"/>
        <path class="cls-3" d="M414.95,104.42c0-17.34,4.82-30.18,14.46-38.53,8.05-6.93,17.87-10.4,29.45-10.4,12.87,0,23.39,4.22,31.56,12.65,8.17,8.44,12.25,20.09,12.25,34.96,0,12.05-1.81,21.53-5.42,28.43-3.61,6.91-8.88,12.27-15.78,16.09-6.91,3.82-14.45,5.73-22.61,5.73-13.11,0-23.7-4.2-31.78-12.61-8.08-8.41-12.12-20.51-12.12-36.32ZM431.26,104.42c0,11.99,2.61,20.97,7.85,26.93,5.23,5.97,11.81,8.95,19.75,8.95s14.43-3,19.66-8.99c5.23-6,7.85-15.13,7.85-27.42,0-11.58-2.63-20.35-7.89-26.32-5.26-5.96-11.8-8.95-19.62-8.95s-14.52,2.97-19.75,8.9c-5.23,5.94-7.85,14.9-7.85,26.89Z"/>
        <path class="cls-3" d="M582.64,151.24v-13.75c-7.29,10.58-17.19,15.87-29.71,15.87-5.53,0-10.68-1.06-15.47-3.17-4.79-2.12-8.35-4.78-10.67-7.98-2.32-3.2-3.95-7.13-4.89-11.77-.65-3.12-.97-8.05-.97-14.81v-58.01h15.87v51.93c0,8.29.32,13.87.97,16.75,1,4.17,3.11,7.45,6.35,9.83,3.23,2.38,7.23,3.57,11.99,3.57s9.23-1.22,13.4-3.66c4.17-2.44,7.13-5.76,8.86-9.96,1.73-4.2,2.6-10.3,2.6-18.29v-50.17h15.87v93.63h-14.19Z"/>
        <path class="cls-3" d="M621.69,187.12V57.61h14.46v12.17c3.41-4.76,7.26-8.33,11.55-10.71,4.29-2.38,9.49-3.57,15.61-3.57,7.99,0,15.05,2.06,21.16,6.17,6.11,4.11,10.73,9.92,13.84,17.41,3.11,7.49,4.67,15.71,4.67,24.64,0,9.58-1.72,18.21-5.16,25.88-3.44,7.67-8.44,13.55-14.99,17.63-6.55,4.08-13.44,6.13-20.67,6.13-5.29,0-10.04-1.12-14.24-3.35-4.2-2.23-7.66-5.05-10.36-8.46v45.58h-15.87ZM636.06,104.95c0,12.05,2.44,20.95,7.32,26.71,4.88,5.76,10.79,8.64,17.72,8.64s13.09-2.98,18.12-8.95c5.03-5.96,7.54-15.21,7.54-27.73s-2.45-20.86-7.36-26.8c-4.91-5.94-10.77-8.9-17.59-8.9s-12.74,3.16-17.94,9.48c-5.2,6.32-7.8,15.5-7.8,27.55Z"/>
        <path class="cls-3" d="M721.76,151.24V21.99h15.87v129.25h-15.87Z"/>
        <path class="cls-3" d="M826.32,121.08l16.4,2.03c-2.59,9.58-7.38,17.02-14.37,22.31-7,5.29-15.93,7.94-26.8,7.94-13.7,0-24.55-4.22-32.58-12.65-8.02-8.43-12.03-20.26-12.03-35.49s4.06-27.98,12.17-36.68c8.11-8.7,18.63-13.05,31.56-13.05s22.75,4.26,30.68,12.78,11.9,20.51,11.9,35.97c0,.94-.03,2.35-.09,4.23h-69.83c.59,10.29,3.5,18.16,8.73,23.63,5.23,5.47,11.75,8.2,19.57,8.2,5.82,0,10.79-1.53,14.9-4.58,4.11-3.06,7.38-7.94,9.79-14.64ZM774.22,95.43h52.28c-.71-7.88-2.71-13.78-6-17.72-5.06-6.11-11.61-9.17-19.66-9.17-7.29,0-13.42,2.44-18.38,7.32-4.97,4.88-7.71,11.4-8.24,19.57Z"/>
        <path class="cls-3" d="M856.3,123.29l15.69-2.47c.88,6.29,3.33,11.11,7.36,14.46,4.03,3.35,9.65,5.03,16.88,5.03s12.7-1.48,16.22-4.45c3.53-2.97,5.29-6.45,5.29-10.45,0-3.58-1.56-6.41-4.67-8.46-2.17-1.41-7.58-3.2-16.22-5.38-11.64-2.94-19.71-5.48-24.2-7.63-4.5-2.14-7.91-5.11-10.23-8.9-2.32-3.79-3.48-7.98-3.48-12.56,0-4.17.96-8.04,2.87-11.59,1.91-3.56,4.51-6.51,7.8-8.86,2.47-1.82,5.83-3.36,10.09-4.63,4.26-1.26,8.83-1.9,13.71-1.9,7.35,0,13.8,1.06,19.35,3.17,5.55,2.12,9.65,4.98,12.3,8.6,2.64,3.61,4.47,8.45,5.47,14.5l-15.52,2.12c-.71-4.82-2.75-8.58-6.13-11.29-3.38-2.7-8.16-4.06-14.33-4.06-7.29,0-12.49,1.21-15.61,3.61-3.12,2.41-4.67,5.23-4.67,8.46,0,2.06.65,3.91,1.94,5.55,1.29,1.71,3.32,3.12,6.08,4.23,1.59.59,6.26,1.94,14.02,4.06,11.23,3,19.06,5.45,23.5,7.36,4.44,1.91,7.92,4.69,10.45,8.33,2.53,3.65,3.79,8.17,3.79,13.58s-1.54,10.27-4.63,14.94c-3.09,4.67-7.54,8.29-13.36,10.84-5.82,2.56-12.4,3.83-19.75,3.83-12.17,0-21.44-2.53-27.82-7.58-6.38-5.05-10.45-12.55-12.21-22.48Z"/>
        <path class="cls-3" d="M1005.39,151.24V21.99h57.31c11.52,0,20.28,1.16,26.27,3.48,6,2.32,10.79,6.42,14.37,12.3,3.58,5.88,5.38,12.37,5.38,19.48,0,9.17-2.97,16.9-8.9,23.19-5.94,6.29-15.11,10.29-27.51,11.99,4.53,2.17,7.96,4.32,10.32,6.44,5,4.58,9.73,10.32,14.19,17.19l22.48,35.18h-21.51l-17.1-26.89c-5-7.76-9.11-13.69-12.34-17.81-3.23-4.11-6.13-6.99-8.68-8.64-2.56-1.64-5.16-2.79-7.8-3.44-1.94-.41-5.11-.62-9.52-.62h-19.84v57.4h-17.1ZM1022.49,79.03h36.76c7.82,0,13.93-.81,18.34-2.42,4.41-1.62,7.76-4.2,10.05-7.76,2.29-3.56,3.44-7.42,3.44-11.59,0-6.11-2.22-11.14-6.66-15.08-4.44-3.94-11.45-5.91-21.03-5.91h-40.91v42.76Z"/>
        <path class="cls-3" d="M1197.58,121.08l16.4,2.03c-2.59,9.58-7.38,17.02-14.37,22.31-7,5.29-15.93,7.94-26.8,7.94-13.7,0-24.55-4.22-32.58-12.65-8.02-8.43-12.03-20.26-12.03-35.49s4.06-27.98,12.17-36.68c8.11-8.7,18.63-13.05,31.56-13.05s22.75,4.26,30.68,12.78,11.9,20.51,11.9,35.97c0,.94-.03,2.35-.09,4.23h-69.83c.59,10.29,3.5,18.16,8.73,23.63,5.23,5.47,11.75,8.2,19.57,8.2,5.82,0,10.79-1.53,14.9-4.58,4.11-3.06,7.38-7.94,9.79-14.64ZM1145.48,95.43h52.28c-.71-7.88-2.71-13.78-6-17.72-5.06-6.11-11.61-9.17-19.66-9.17-7.29,0-13.42,2.44-18.38,7.32-4.97,4.88-7.71,11.4-8.24,19.57Z"/>
        <path class="cls-3" d="M1227.56,123.29l15.69-2.47c.88,6.29,3.33,11.11,7.36,14.46,4.03,3.35,9.65,5.03,16.88,5.03s12.7-1.48,16.22-4.45c3.53-2.97,5.29-6.45,5.29-10.45,0-3.58-1.56-6.41-4.67-8.46-2.17-1.41-7.58-3.2-16.22-5.38-11.64-2.94-19.71-5.48-24.2-7.63-4.5-2.14-7.91-5.11-10.23-8.9-2.32-3.79-3.48-7.98-3.48-12.56,0-4.17.96-8.04,2.87-11.59,1.91-3.56,4.51-6.51,7.8-8.86,2.47-1.82,5.83-3.36,10.09-4.63,4.26-1.26,8.83-1.9,13.71-1.9,7.35,0,13.8,1.06,19.35,3.17,5.55,2.12,9.65,4.98,12.3,8.6,2.64,3.61,4.47,8.45,5.47,14.5l-15.52,2.12c-.71-4.82-2.75-8.58-6.13-11.29-3.38-2.7-8.16-4.06-14.33-4.06-7.29,0-12.49,1.21-15.61,3.61-3.12,2.41-4.67,5.23-4.67,8.46,0,2.06.65,3.91,1.94,5.55,1.29,1.71,3.32,3.12,6.08,4.23,1.59.59,6.26,1.94,14.02,4.06,11.23,3,19.06,5.45,23.5,7.36,4.44,1.91,7.92,4.69,10.45,8.33,2.53,3.65,3.79,8.17,3.79,13.58s-1.54,10.27-4.63,14.94c-3.09,4.67-7.54,8.29-13.36,10.84-5.82,2.56-12.4,3.83-19.75,3.83-12.17,0-21.44-2.53-27.82-7.58-6.38-5.05-10.45-12.55-12.21-22.48Z"/>
        <path class="cls-3" d="M1318.28,104.42c0-17.34,4.82-30.18,14.46-38.53,8.05-6.93,17.87-10.4,29.45-10.4,12.87,0,23.39,4.22,31.56,12.65,8.17,8.44,12.25,20.09,12.25,34.96,0,12.05-1.81,21.53-5.42,28.43-3.61,6.91-8.88,12.27-15.78,16.09-6.91,3.82-14.45,5.73-22.61,5.73-13.11,0-23.7-4.2-31.78-12.61-8.08-8.41-12.12-20.51-12.12-36.32ZM1334.59,104.42c0,11.99,2.61,20.97,7.85,26.93,5.23,5.97,11.81,8.95,19.75,8.95s14.43-3,19.66-8.99c5.23-6,7.85-15.13,7.85-27.42,0-11.58-2.63-20.35-7.89-26.32-5.26-5.96-11.8-8.95-19.62-8.95s-14.52,2.97-19.75,8.9c-5.23,5.94-7.85,14.9-7.85,26.89Z"/>
        <path class="cls-3" d="M1424.43,151.24V57.61h14.28v14.19c3.64-6.64,7.01-11.02,10.09-13.14,3.09-2.12,6.48-3.17,10.18-3.17,5.35,0,10.79,1.71,16.31,5.11l-5.47,14.72c-3.88-2.29-7.76-3.44-11.64-3.44-3.47,0-6.58,1.04-9.35,3.13-2.76,2.09-4.73,4.98-5.91,8.68-1.76,5.64-2.64,11.81-2.64,18.51v49.02h-15.87Z"/>
        <path class="cls-3" d="M1519.39,137.04l2.29,14.02c-4.47.94-8.46,1.41-11.99,1.41-5.76,0-10.23-.91-13.4-2.73s-5.41-4.22-6.7-7.19c-1.29-2.97-1.94-9.21-1.94-18.73v-53.87h-11.64v-12.34h11.64v-23.19l15.78-9.52v32.71h15.96v12.34h-15.96v54.75c0,4.53.28,7.44.84,8.73.56,1.29,1.47,2.32,2.73,3.09,1.26.76,3.07,1.15,5.42,1.15,1.76,0,4.08-.21,6.96-.62Z"/>
      </g>
    </g>
  </g>
</svg>